<?xml version="1.0" standalone="no"?>
<!DOCTYPE svg PUBLIC "-//W3C//DTD SVG 1.1//EN" "http://www.w3.org/Graphics/SVG/1.1/DTD/svg11.dtd" >
<svg xmlns="http://www.w3.org/2000/svg" xmlns:xlink="http://www.w3.org/1999/xlink" version="1.1">
<metadata>
Created by FontForge 20170731 at Mon Feb 25 18:16:15 2019
 By Aleksey,,,
</metadata>
<defs>
<font id="leedo" horiz-adv-x="1024" >
  <font-face 
    font-family="leedo"
    font-weight="400"
    font-stretch="normal"
    units-per-em="1024"
    panose-1="0 0 0 0 0 0 0 0 0 0"
    ascent="960"
    descent="-64"
    bbox="0 -64 1247 960.143"
    underline-thickness="0"
    underline-position="0"
    unicode-range="U+0001-FFFD"
  />
<missing-glyph 
 />
    <glyph glyph-name=".notdef" unicode="&#xfffd;" 
 />
    <glyph glyph-name="glyph1" horiz-adv-x="0" 
d="M0 0v0v0v0z" />
    <glyph glyph-name="glyph1" horiz-adv-x="0" 
d="M0 0v0v0v0z" />
    <glyph glyph-name="nonmarkingreturn" horiz-adv-x="341" 
 />
    <glyph glyph-name="uni0001" horiz-adv-x="0" 
d="M0 0v0v0v0z" />
    <glyph glyph-name="space" unicode=" " horiz-adv-x="512" 
d="M0 0v0v0v0z" />
    <glyph glyph-name="uniE900" unicode="&#xe900;" 
d="M512 448q53 0 98.5 19t82.5 56q38 37 56.5 82.5t18.5 98.5t-18.5 98.5t-56.5 82.5q-37 38 -82.5 56.5t-98.5 18.5t-98.5 -18.5t-82.5 -56.5q-38 -37 -56.5 -82.5t-18.5 -98.5t18.5 -98.5t56.5 -82.5t83 -56t98 -19zM979 178q-1 16 -3.5 34.5t-5.5 37.5q-4 20 -8.5 38
t-9.5 35q-5 16 -12.5 32.5t-16.5 32.5t-19 29.5t-22 24.5t-26 20t-31 15q-17 7 -35.5 10.5t-38.5 3.5q-3 0 -10 -4t-18 -11t-23.5 -15t-26.5 -17q-14 -8 -32 -16.5t-40 -15.5t-44.5 -10.5t-44.5 -3.5t-44.5 3.5t-44.5 10.5t-40 15.5t-32 16.5q-14 9 -26.5 17t-23.5 15
t-18 11t-10 4q-20 0 -38.5 -3.5t-35.5 -10.5q-17 -6 -31 -15t-26 -20t-22 -24.5t-19 -29.5t-16.5 -32.5t-12.5 -32.5q-5 -17 -9.5 -35t-8.5 -38q-3 -19 -5.5 -37t-3.5 -35t-1.5 -34.5t-0.5 -34.5q0 -40 12 -72t36 -55q25 -23 57 -34.5t73 -11.5h582q41 0 73 11.5t57 34.5
q24 23 36 55t12 72q0 17 -0.5 34.5t-1.5 34.5v0z" />
    <glyph glyph-name="uniE901" unicode="&#xe901;" 
d="M563 719l440 -440q21 -21 21 -51t-21 -51t-50.5 -21t-50.5 21l-390 390l-390 -390q-21 -21 -50.5 -21t-50.5 21t-21 51t21 51l440 440q11 10 24 15.5t27 5.5t27 -5.5t24 -15.5v0z" />
    <glyph glyph-name="uniE902" unicode="&#xe902;" 
d="M512 156q-14 0 -27 5.5t-24 15.5l-440 440q-21 21 -21 51t21 51t50.5 21t50.5 -21l390 -390l390 390q21 21 50.5 21t50.5 -21t21 -51t-21 -51l-440 -440q-11 -10 -24 -15.5t-27 -5.5v0z" />
    <glyph glyph-name="uniE903" unicode="&#xe903;" 
d="M634 448l365 365q25 25 25 61t-25 61t-61 25t-61 -25l-365 -365l-365 365q-25 25 -61 25t-61 -25t-25 -61t25 -61l365 -365l-365 -365q-25 -25 -25 -61t25 -61t61 -25t61 25l365 365l365 -365q25 -25 61 -25t61 25t25 61t-25 61l-365 365v0z" />
    <glyph glyph-name="uniE904" unicode="&#xe904;" 
d="M625 561q-9 9 -19 17t-21 15q-29 19 -62 28.5t-67 9.5q-48 0 -92 -18t-77 -52l-217 -217q-34 -34 -52 -78t-18 -91q0 -49 19 -93q19 -43 51 -75.5t76 -51.5q43 -19 93 -19q47 0 91 18t78 52l179 179q2 2 3.5 5.5t1.5 6.5q0 7 -5 12t-12 5h-7q-28 0 -55.5 5.5t-53.5 15.5
q-5 2 -10 1t-9 -5l-129 -129q-30 -30 -72.5 -30t-72.5 30t-30 72.5t30 72.5l218 218q30 30 72.5 30t72.5 -30q20 -19 48 -19t48 19q8 9 13.5 20t6.5 23q1 15 -4.5 28.5t-15.5 24.5v0zM954 890q-35 35 -79 53q-44 17 -90 17t-90 -17q-44 -18 -79 -53l-179 -179q-4 -4 -5 -9
t2 -10q2 -4 6 -7t10 -3h6q28 0 55.5 -5.5t53.5 -15.5q5 -2 10 -1t8 4l129 129q30 30 72.5 30t72.5 -30t30 -72.5t-30 -72.5l-160 -160l-2 -2l-56 -55q-30 -30 -72 -30t-72 30q-20 19 -48 19t-48 -19q-9 -9 -14 -20t-6 -24q-1 -14 4 -28t16 -24q15 -15 32 -27t36 -21
q3 -1 5.5 -2.5t5.5 -2.5t5.5 -2t5.5 -2q2 -1 5 -2t6 -1l10 -3q5 -1 10 -2.5t10 -1.5q7 -1 13 -2t13 -1h13l10 1q3 0 6 0.5t6 0.5h6l12 2l5 1l10 2h2q31 8 59.5 24t51.5 39l217 217q35 35 52 79q18 44 18 90t-18 90q-17 44 -52 79v0z" />
    <glyph glyph-name="uniE905" unicode="&#xe905;" 
d="M991 27l-243 254q47 56 72 124t25 142q0 85 -33 160q-33 76 -89 132t-131 88q-75 33 -161 33q-85 0 -161 -33q-75 -32 -131 -88t-89 -132q-32 -75 -32 -160q0 -86 32 -161q33 -75 89 -131.5t131 -88.5q76 -33 161 -33q64 0 124.5 19t112.5 56l246 -255q7 -8 17 -12.5
t21 -4.5t20.5 4t17.5 11q16 16 16.5 38t-15.5 38v0zM431 852q63 0 119 -24t97.5 -65.5t65.5 -97.5q24 -55 24 -118q0 -64 -24 -119q-24 -56 -65.5 -97.5t-97.5 -65.5t-119 -24t-119 24q-55 24 -96.5 65.5t-65.5 97.5q-24 55 -24 119q0 63 24 118q24 56 65.5 97.5t96.5 65.5
q56 24 119 24v0z" />
    <glyph glyph-name="uniE906" unicode="&#xe906;" 
d="M316 960l-120 -119l393 -393l-393 -393l120 -119l512 512z" />
    <glyph glyph-name="uniE907" unicode="&#xe907;" 
d="M912 874q-8 0 -14 -6t-6 -14t6 -14t14 -6t14 6t6 14t-6 14t-14 6zM792 874q-8 0 -14 -6t-6 -14t6 -14t14 -6t14 6t6 14t-6 14t-14 6zM672 874q-8 0 -14 -6t-6 -14t6 -14t14 -6t14 6t6 14t-6 14t-14 6zM552 342q-8 0 -14 -6t-6 -14t6 -14t14 -6t14 6t6 14t-6 14t-14 6z
M552 222q-8 0 -14 -6t-6 -14t6 -14t14 -6t14 6t6 14t-6 14t-14 6zM552 102q-8 0 -14 -6t-6 -14t6 -14t14 -6t14 6t6 14t-6 14t-14 6zM964 960h-904q-25 0 -42.5 -17.5t-17.5 -42.5v-904q0 -25 17.5 -42.5t42.5 -17.5h904q25 0 42.5 17.5t17.5 42.5v904q0 25 -17.5 42.5
t-42.5 17.5zM984 -4q0 -8 -6 -14t-14 -6h-904q-8 0 -14 6t-6 14v752h944v-752zM984 788h-944v112q0 8 6 14t14 6h904q8 0 14 -6t6 -14v-112zM872 668h-720v0v0h-1h-1v0v0h-1v0h-1v0q0 -1 -0.5 -1h-0.5h-0.5h-0.5h-0.5h-0.5l-0.5 -0.5l-0.5 -0.5h-0.5h-0.5v0l-1 -1v0v0h-1v-1
h-1v0l-0.5 -0.5l-0.5 -0.5h-0.5h-0.5v-1v0l-0.5 -0.5l-0.5 -0.5v0v0l-1 -1v0q0 -1 -0.5 -1h-0.5v-0.5v-0.5h-0.5t-0.5 -1v0v0v-1l-1 -1v0v0v-1v0v-0.5v-0.5v0v0l-0.5 -0.5l-0.5 -0.5v-1v0v-1v0v-1v0v-1v0v-200q0 -8 6 -14t14 -6h720v0v0h0.5h1.5v0v0h1h1v0v0l1 1h1v0v0h0.5
h0.5l0.5 0.5l0.5 0.5h0.5h0.5q1 0 1 0.5v0.5h0.5h0.5v0.5t1 0.5v0v0q1 0 1 0.5v0.5h0.5t0.5 1v0v0l1.5 1.5l1.5 1.5v0v0v0.5v0.5q1 0 1 0.5v0.5v0.5v0.5h0.5t0.5 1v0v1v0v0v0.5v0.5v0v0l0.5 0.5l0.5 0.5v1v0v1v0v1v0v1v0v200q0 8 -6 14t-14 6v0zM172 468v154l553 -154h-553z
M852 474l-553 154h553v-154zM432 342h-280v0h-1h-0.5h-0.5h-0.5h-0.5v0h-1v-0.5t-1 -0.5v0h-1v0h-1v0v0l-1 -1v0h-1v0l-0.5 -0.5l-0.5 -0.5h-0.5h-0.5v-0.5t-1 -0.5v0h-1v-1v0l-0.5 -0.5l-0.5 -0.5h-0.5h-0.5v-1v0v0v0l-0.5 -0.5l-0.5 -0.5v-0.5t-1 -0.5v0v-1v0h-1v-1v0v-1
v0l-0.5 -0.5l-0.5 -0.5v-0.5v-0.5v-0.5v-0.5l-0.5 -0.5l-0.5 -0.5v0v-1v-0.5v-0.5v0v-1v-0.5v-0.5v0v0v-240q0 -8 6 -14t14 -6h280h1.5h0.5v0v0h1.5h0.5v0.5t1 0.5h0.5h0.5h0.5h0.5l0.5 0.5l0.5 0.5h0.5h0.5h0.5t0.5 1v0h1v0.5t1 0.5v0v0q1 0 1 0.5v0.5h0.5t0.5 1h0.5t0.5 1
v0v0v0v0l0.5 0.5l0.5 0.5v0.5v0.5h1v1v0h1v1v0v1v0l0.5 0.5l0.5 0.5v0.5v0.5v0.5v0.5l0.5 0.5l0.5 0.5v0v1v0.5v0.5v0v1v0.5v0.5v0v0v240q0 8 -6 14t-14 6v0zM172 102v177l206 -177h-206v0zM412 125l-206 177h206v-177zM872 342h-240q-8 0 -14 -6t-6 -14t6 -14t14 -6h240
q8 0 14 6t6 14t-6 14t-14 6zM872 222h-240q-8 0 -14 -6t-6 -14t6 -14t14 -6h240q8 0 14 6t6 14t-6 14t-14 6zM872 102h-240q-8 0 -14 -6t-6 -14t6 -14t14 -6h240q8 0 14 6t6 14t-6 14t-14 6z" />
    <glyph glyph-name="uniE908" unicode="&#xe908;" 
d="M806 416q-6 6 -14 6t-14 -6t-6 -14t6 -14t14 -6t14 6t6 14t-6 14zM392 662q-8 0 -14 -6t-6 -14t6 -14t14 -6t14 6t6 14t-6 14t-14 6zM266 662q-8 0 -14 -6t-6 -14t6 -14t14 -6t14 6t6 14t-6 14t-14 6zM146 662q-8 0 -14 -6t-6 -14t6 -14t14 -6t14 6t6 14t-6 14t-14 6z
M964 742h-36q23 30 41.5 57.5t31.5 49.5q12 24 21 52.5t-9 47.5q-18 17 -53 8t-91 -46q-46 -30 -99 -73.5t-107 -95.5h-603q-25 0 -42.5 -17.5t-17.5 -42.5v-686q0 -25 17.5 -42.5t42.5 -17.5h904q25 0 42.5 17.5t17.5 42.5v686q0 25 -17.5 42.5t-42.5 17.5v0zM667 690
l8.5 8.5l9.5 9.5q51 49 101.5 91.5t94.5 71.5q49 33 73 41.5t30 7.5q1 -9 -19 -52t-92 -130l-3.5 -3.5t-2.5 -3.5q-26 -31 -55 -62.5t-60 -63.5q-8 -7 -15 -14.5t-15 -14.5q-12 -12 -24.5 -23.5t-24.5 -22.5q-8 12 -17.5 23.5t-19.5 21.5t-21 19t-23 17q18 20 36.5 39.5
t38.5 39.5v0zM470 452q13 21 30.5 46t39.5 51q6 8 12.5 16t13.5 16q11 -7 21.5 -15.5t20.5 -18.5t18.5 -20.5t15.5 -22.5q-35 -30 -68 -54.5t-61 -41.5q-3 7 -8 13.5t-10 12.5q-6 5 -12 9.5t-13 8.5zM466 321q-11 -12 -51 -24.5t-79 -20.5q9 39 21.5 78.5t23.5 51.5
q9 8 20 12.5t23 4.5h6.5t6.5 -1q8 -2 15.5 -6t13.5 -10q7 -7 11 -14.5t6 -16.5v0v0q3 -15 -1.5 -29t-15.5 -25v0zM40 682q0 8 6 14t14 6h562q-20 -21 -38.5 -41.5t-36.5 -40.5v0v0q-9 -10 -17 -19.5t-15 -18.5h-475v100v0zM984 -4q0 -8 -6 -14t-14 -6h-904q-8 0 -14 6t-6 14
v546h443q-16 -22 -29 -41.5t-24 -37.5q-21 1 -41 -6.5t-36 -22.5q-25 -25 -42 -93.5t-20 -86.5q-1 -5 0.5 -10t5.5 -8q2 -3 6 -4.5t8 -1.5h1.5h1.5q18 4 86.5 20.5t94.5 42.5q15 15 22.5 34.5t6.5 40.5q33 19 73.5 49t83.5 68v0v0q16 13 31.5 27.5t31.5 29.5h240v-546v0z
M984 582h-199q30 30 57.5 60t52.5 60h69q8 0 14 -6t6 -14v-100v0zM792 342q-9 0 -15 -6t-6 -14v-200q0 -8 -5.5 -14t-13.5 -6q-4 0 -7.5 1.5t-6.5 4.5t-4.5 6.5t-1.5 7.5v40q0 25 -17.5 42.5t-42.5 17.5q-12 0 -23 -4.5t-20 -12.5q-8 -9 -13 -20t-5 -23q0 -4 -1.5 -7.5
t-3.5 -6.5q-3 -3 -6.5 -4.5t-7.5 -1.5t-7.5 1.5t-6.5 4.5t-4.5 6.5t-1.5 7.5q0 12 -4.5 23t-12.5 20q-9 8 -20 12.5t-23 4.5t-23 -4.5t-20 -12.5q-8 -9 -13 -20t-5 -23q0 -4 -1.5 -7.5t-3.5 -6.5q-3 -3 -6.5 -4t-7.5 -2q0 1 -3.5 3t-8.5 9q-4 6 -6.5 11l-2.5 5q-4 8 -12 11
t-15 0q-8 -4 -11 -12t0 -15q1 -1 4.5 -8t9.5 -16q10 -14 21.5 -21t23.5 -7t23 4.5t20 12.5q8 9 12.5 20t4.5 23q0 4 1.5 7.5t4.5 6.5t6.5 4.5t7.5 1.5t7.5 -1.5t6.5 -4.5q2 -3 3.5 -6.5t1.5 -7.5q0 -12 5 -23t13 -20q9 -8 20 -12.5t23 -4.5t23 4.5t20 12.5q8 9 12.5 20
t4.5 23q0 4 1.5 7.5t4.5 6.5t6.5 4.5t7.5 1.5q8 0 13.5 -6t5.5 -14v-40q0 -12 5 -23t13 -20q9 -8 20 -12.5t23 -4.5q25 0 42.5 17.5t17.5 42.5v200q0 8 -6 14t-14 6v0z" />
    <glyph glyph-name="uniE909" unicode="&#xe909;" 
d="M924 528q-8 0 -14 -6t-6 -14t6 -14t14 -6t14 6t6 14t-6 14t-14 6zM100 528q-8 0 -14 -6t-6 -14t6 -14t14 -6t14 6t6 14t-6 14t-14 6zM964 848h-501q-13 0 -24 -5t-20 -13l-91 -96q-3 -3 -7 -4.5t-8 -1.5h-21v60q0 8 -6 14t-14 6h-172q-8 0 -14 -6t-6 -14v-60
q-33 0 -56.5 -23.5t-23.5 -56.5v-520q0 -33 23.5 -56.5t56.5 -23.5h864q33 0 56.5 23.5t23.5 56.5v660q0 25 -17.5 42.5t-42.5 17.5zM120 768h132v-40h-132v40zM40 568h284q-34 -36 -53 -82.5t-19 -97.5t19 -97.5t53 -82.5h-284v360zM387 569q27 19 59 29t66 10t66 -10
t59 -29v0v0q45 -31 70 -79t25 -102t-25 -102t-70 -79q-27 -19 -59 -29t-66 -10t-66 10t-59 29q-45 31 -70 79t-25 102t25 102t70 79v0zM984 128q0 -17 -11.5 -28.5t-28.5 -11.5h-864q-17 0 -28.5 11.5t-11.5 28.5v40h333v0v0q32 -20 67 -30t72 -10t72 10t67 30v0v0h333v-40z
M984 208h-284q34 36 53 82.5t19 97.5t-19 97.5t-53 82.5h284v-360zM984 608h-333v0v0q-32 20 -67 30t-72 10t-72 -10t-67 -30v0v0h-333v40q0 17 11.5 28.5t28.5 11.5h233q13 0 24 5t20 13l91 96q3 3 7 4.5t8 1.5h501q8 0 14 -6t6 -14v-180zM924 768h-172q-8 0 -14 -6t-6 -14
v-80q0 -8 6 -14t14 -6h172q8 0 14 6t6 14v80q0 8 -6 14t-14 6zM904 688h-132v40h132v-40zM924 448q-8 0 -14 -6t-6 -14v-160q0 -8 6 -14t14 -6t14 6t6 14v160q0 8 -6 14t-14 6zM100 448q-8 0 -14 -6t-6 -14v-160q0 -8 6 -14t14 -6t14 6t6 14v160q0 8 -6 14t-14 6zM512 528
q-58 0 -99 -41t-41 -99t41 -99t99 -41t99 41t41 99t-41 99t-99 41zM512 288q-41 0 -70.5 29.5t-29.5 70.5t29.5 70.5t70.5 29.5t70.5 -29.5t29.5 -70.5t-29.5 -70.5t-70.5 -29.5z" />
    <glyph glyph-name="uniE90A" unicode="&#xe90a;" 
d="M143 607h-143v-318h143l270 -201l25 -15.5t25 17.5v125v237.5v236.5v124q0 25 -22 12.5l-22 -12.5zM617 669q-11 11 -26 11t-26 -11q-10 -10 -10 -25t10 -26q35 -35 52.5 -79t17.5 -90t-17.5 -90t-52.5 -79q-10 -11 -10 -26t10 -26q6 -5 12.5 -8t13.5 -3t13.5 3t12.5 8
q45 46 68 103.5t23 117.5t-23 117.5t-68 102.5v0zM715 784q-10 11 -25 11t-26 -11t-11 -26t11 -26q59 -58 88.5 -132t29.5 -151q0 -78 -29.5 -152t-88.5 -134q-11 -10 -11 -25t11 -26q5 -5 12 -8t14 -3t13.5 3t11.5 8q35 35 61 75t43.5 83t26.5 88q8 45 8 91q0 45 -8 90
q-9 45 -26.5 88t-43.5 83q-26 39 -61 74v0zM836 901q-10 11 -25.5 11t-25.5 -11q-11 -10 -11 -25.5t11 -25.5q41 -42 73 -89q31 -48 51.5 -99t31.5 -105q10 -54 10 -108q0 -55 -10 -109q-11 -54 -31.5 -105.5t-51.5 -99.5q-32 -47 -73 -89q-11 -11 -11 -26t11 -25
q5 -6 12 -8.5t14 -2.5t13.5 2.5t11.5 8.5q47 47 82 100q36 54 59.5 112t34.5 119q12 61 12 123q0 61 -12 122t-35.5 118.5t-58.5 111.5q-35 53 -82 100v0z" />
    <glyph glyph-name="uniE90B" unicode="&#xe90b;" 
d="M783 397l-440 -440q-21 -21 -51 -21t-51 21t-21 50.5t21 50.5l390 390l-390 390q-21 21 -21 50.5t21 50.5t51 21t51 -21l440 -440q10 -11 15.5 -24t5.5 -27t-5.5 -27t-15.5 -24v0z" />
    <glyph glyph-name="uniE90C" unicode="&#xe90c;" 
d="M524 760q-8 0 -14 -6t-6 -14t6 -14t14 -6t14 6t6 14t-6 14t-14 6zM1009 539l-75 19q-7 33 -20 63.5t-30 59.5l39 66q4 6 3 12.5t-6 11.5l-85 85q-5 5 -11.5 6t-12.5 -3l-66 -39q-29 17 -59.5 30t-63.5 20l-19 75q-1 7 -6.5 11t-12.5 4h-120q-7 0 -12.5 -4t-6.5 -11
l-19 -76q-33 -7 -63 -20t-59 -30l-67 40q-6 4 -12.5 3t-11.5 -6l-85 -85q-5 -5 -6 -11.5t3 -12.5l41 -69q-17 -28 -29.5 -58t-19.5 -61l-78 -20q-7 -1 -11 -6.5t-4 -12.5v-120q0 -7 4 -12.5t11 -6.5l79 -20q7 -31 19.5 -60.5t28.5 -56.5l-108 -109v0v0l-29 -28
q-14 -14 -21.5 -32.5t-7.5 -38.5t7.5 -38.5t21.5 -32.5t32.5 -21.5t38.5 -7.5t38.5 7.5t32.5 21.5l137 137q27 -16 56.5 -28.5t60.5 -19.5l20 -79q1 -7 6.5 -11t12.5 -4h120q7 0 12.5 4t6.5 11l20 78q31 7 61 19.5t58 29.5l69 -41q6 -4 12.5 -3t11.5 6l85 85q5 5 6 11.5
t-3 12.5l-40 67q17 29 30 59t20 63l76 19q7 1 11 6.5t4 12.5v120q0 7 -4 12.5t-11 6.5v0zM142 -6q-8 -9 -19 -13.5t-23 -4.5t-23 4.5t-19 13.5q-9 8 -13.5 19t-4.5 23t4.5 23t13.5 19l14 15l85 -85l-15 -14v0zM291 142v0v0l-106 -106l-85 85l106 106v0v0l86 86v0v0l70 69
q13 -27 35 -49t49 -35l-69 -70v0v0zM573 484q2 5 0.5 10.5t-5.5 9.5t-9.5 5.5t-10.5 -0.5l-164 -55v3.5v2.5q0 58 41 99t99 41t99 -41t41 -99t-41 -99t-99 -41h-2.5h-3.5l55 164v0zM480 331l-3 -3q-30 11 -52 33t-33 52l3 3l127 42zM984 416v0l-72 -18q-6 -2 -10 -6t-5 -10
q-7 -35 -21 -67.5t-33 -62.5q-4 -5 -4 -11t3 -10l39 -65l-63 -63l-65 40q-5 3 -11 2.5t-11 -3.5q-29 -19 -61.5 -32.5t-67.5 -20.5q-5 -1 -9.5 -5t-5.5 -9l-19 -75h-88l-19 75q-2 6 -6 10t-9 5q-29 6 -56.5 16.5t-52.5 24.5l58 58q30 -14 62.5 -21.5t66.5 -7.5q62 0 117 24
q54 23 95 64t64 95q24 55 24 117q0 47 -14 91t-41 82q-26 37 -61.5 64.5t-78.5 43.5q-7 3 -14.5 -0.5t-10.5 -11.5t0.5 -15.5t10.5 -10.5q38 -14 69 -38q31 -25 53.5 -57t34.5 -70t12 -78q0 -54 -20 -101q-21 -47 -56.5 -82.5t-82.5 -56.5q-47 -20 -101 -20q-25 0 -50.5 5
t-48.5 15l64 63q8 -1 17 -2t18 -1q74 0 127 53t53 127t-53 127t-127 53t-127 -53t-53 -127q0 -9 1 -18t2 -17l-63 -64q-10 23 -15 48.5t-5 50.5q0 40 12 78t34.5 70t53.5 57q31 24 69 38q7 3 10.5 10.5t0.5 15.5t-10.5 11.5t-14.5 0.5q-43 -16 -78.5 -43.5t-61.5 -64.5
q-27 -38 -41 -82t-14 -91q0 -34 7.5 -66.5t21.5 -62.5l-58 -58q-14 25 -24.5 52.5t-16.5 56.5q-1 5 -5 9t-10 6l-75 19v88l75 19q5 1 9 5.5t5 9.5q7 35 20.5 67.5t32.5 61.5q3 5 3.5 11t-2.5 11l-40 65l63 63l65 -39q4 -3 10 -3t11 4q30 19 62.5 33t67.5 21q6 1 10 5t6 10
l18 72h88l18 -72q2 -5 6 -9t10 -5q35 -7 68 -21t64 -34q4 -3 10 -3t11 3l63 38l63 -63l-38 -63q-3 -5 -3 -11t3 -10q20 -31 34 -64t21 -68q1 -6 5 -10t9 -6l72 -18v-88v0z" />
    <glyph glyph-name="uniE90D" unicode="&#xe90d;" 
d="M712 102q-8 0 -14 -6t-6 -14t6 -14t14 -6t14 6t6 14t-6 14t-14 6zM1010 606q-8 11 -20 16.5t-26 5.5h-106v272q0 25 -17.5 42.5t-42.5 17.5h-572q-25 0 -42.5 -17.5t-17.5 -42.5v-272h-106q-14 0 -26 -5.5t-20 -16.5q-7 -8 -10.5 -18t-3.5 -20v-572q0 -12 4.5 -23
t13.5 -19v-0.5v-0.5v0v0q8 -8 19 -12.5t23 -4.5h904q12 0 22.5 4.5t19.5 12.5v0v0v0.5v0.5q9 8 13.5 19t4.5 23v572q0 10 -3.5 20t-10.5 18v0zM858 588h97l-97 -78v78zM206 900q0 8 6 14t14 6h572q8 0 14 -6t6 -14v-422l-207 -166l-86 71q-6 5 -13 5t-13 -5l-86 -71
l-207 166v422v0zM166 588v-78l-97 78h97zM40 1v559l342 -275l-342 -284v0zM73 -24l439 366l439 -366h-878v0zM984 1l-342 284l342 275v-559v0zM626 708q-6 6 -14 6t-14 -6l-106 -106l-66 66q-6 6 -14 6t-14 -6t-6 -14t6 -14l80 -80q3 -3 6.5 -4.5t7.5 -1.5t7.5 1.5t6.5 4.5
l120 120q6 6 6 14t-6 14v0zM632 102h-320q-8 0 -14 -6t-6 -14t6 -14t14 -6h320q8 0 14 6t6 14t-6 14t-14 6zM512 874q-45 0 -86 -17q-40 -18 -69.5 -47.5t-47.5 -69.5q-17 -41 -17 -86t17 -86q18 -40 47.5 -69.5t69.5 -47.5q41 -17 86 -17t86 17q40 18 69.5 47.5t47.5 69.5
q17 41 17 86t-17 86q-18 40 -47.5 69.5t-69.5 47.5q-41 17 -86 17zM512 474q-74 0 -127 53t-53 127t53 127t127 53t127 -53t53 -127t-53 -127t-127 -53z" />
    <glyph glyph-name="uniE90E" unicode="&#xe90e;" 
d="M432 748q-8 0 -14 -6t-6 -14t6 -14t14 -6t14 6t6 14t-6 14t-14 6zM964 960h-904q-25 0 -42.5 -17.5t-17.5 -42.5v-698q0 -25 17.5 -42.5t42.5 -17.5h310q-5 -32 -26.5 -57t-52.5 -36l-25 -8q-6 -2 -10 -7.5t-4 -11.5v-66q0 -8 6 -14t14 -6h480q8 0 14 6t6 14v66
q0 6 -4 11.5t-10 7.5l-25 8q-31 11 -52.5 36t-26.5 57h310q25 0 42.5 17.5t17.5 42.5v698q0 25 -17.5 42.5t-42.5 17.5zM721 11l11 -3v-32h-440v32l11 3q44 15 73 50.5t35 80.5h202q6 -45 35 -80.5t73 -50.5zM984 202q0 -8 -6 -14t-14 -6h-904q-8 0 -14 6t-6 14v106h944
v-106zM372 600l229 -230q3 -3 7 -4t7 -1q4 0 8 1t7 4q5 6 5 14.5t-5 14.5l-70 69l92 92l217 -212h-743v12l246 240v0zM126 416v418h772v-458l-232 226q-6 6 -14 6t-14 -6l-106 -106l-146 146q-6 6 -14 6t-14 -6l-232 -226v0zM984 348h-46v506q0 8 -6 14t-14 6h-812
q-8 0 -14 -6t-6 -14v-506h-46v552q0 8 6 14t14 6h904q8 0 14 -6t6 -14v-552zM552 748q-25 0 -42.5 -17.5t-17.5 -42.5t17.5 -42.5t42.5 -17.5t42.5 17.5t17.5 42.5t-17.5 42.5t-42.5 17.5zM552 668q-8 0 -14 6t-6 14t6 14t14 6t14 -6t6 -14t-6 -14t-14 -6zM352 748h-80
q-8 0 -14 -6t-6 -14t6 -14t14 -6h80q8 0 14 6t6 14t-6 14t-14 6zM752 708h-80q-8 0 -14 -6t-6 -14t6 -14t14 -6h80q8 0 14 6t6 14t-6 14t-14 6zM552 262h-80q-8 0 -14 -6t-6 -14t6 -14t14 -6h80q8 0 14 6t6 14t-6 14t-14 6z" />
    <glyph glyph-name="uniE90F" unicode="&#xe90f;" 
d="M866 123q-6 6 -14.5 6t-14.5 -6t-6 -14.5t6 -14.5q6 -5 14.5 -5t14.5 5q5 6 5 14.5t-5 14.5zM187 802q-6 5 -14.5 5t-14.5 -5q-5 -6 -5 -14.5t5 -14.5q6 -6 14.5 -6t14.5 6t6 14.5t-6 14.5zM848 460q-1 1 -26.5 33t-70.5 70q-59 52 -120 78.5t-119 26.5t-119 -26.5
t-120 -78.5q-45 -38 -70.5 -70t-26.5 -33q-4 -6 -4 -12t4 -12q1 -1 26.5 -33t70.5 -70q59 -52 120 -78.5t119 -26.5t119 26.5t120 78.5q45 38 70.5 70t26.5 33q4 6 4 12t-4 12v0zM512 268q-53 0 -101 22q-48 23 -87 52.5t-66 59.5q-28 30 -41 46q13 16 41 46q27 30 66 59.5
t87 52.5q48 22 101 22t101 -22q48 -23 87 -52.5t66 -59.5q28 -30 41 -46q-13 -16 -41 -46q-27 -30 -66 -59.5t-87 -52.5q-48 -22 -101 -22zM512 588q-58 0 -99 -41t-41 -99t41 -99t99 -41t99 41t41 99t-41 99t-99 41zM512 348q-41 0 -70.5 29.5t-29.5 70.5t29.5 70.5
t70.5 29.5t70.5 -29.5t29.5 -70.5t-29.5 -70.5t-70.5 -29.5zM512 508q-25 0 -42.5 -17.5t-17.5 -42.5t17.5 -42.5t42.5 -17.5t42.5 17.5t17.5 42.5t-17.5 42.5t-42.5 17.5zM512 428q-8 0 -14 6t-6 14t6 14t14 6t14 -6t6 -14t-6 -14t-14 -6zM512 828q-8 0 -14 -6t-6 -14v-80
q0 -8 6 -14t14 -6t14 6t6 14v80q0 8 -6 14t-14 6zM512 188q-8 0 -14 -6t-6 -14v-80q0 -8 6 -14t14 -6t14 6t6 14v80q0 8 -6 14t-14 6zM328 660l-56 57q-6 6 -14.5 6t-14.5 -6t-6 -14.5t6 -14.5l57 -56q3 -3 6.5 -4.5t7.5 -1.5t7.5 1.5t6.5 4.5q6 6 6 14t-6 14zM781 208
l-57 56q-6 6 -14 6t-14 -6t-6 -14t6 -14l56 -57q3 -3 7 -4.5t8 -1.5q3 0 7 1.5t7 4.5q6 6 6 14.5t-6 14.5v0zM328 264q-6 6 -14 6t-14 -6l-57 -56q-6 -6 -6 -14.5t6 -14.5q3 -3 7 -4.5t7 -1.5q4 0 8 1.5t7 4.5l56 57q6 6 6 14t-6 14zM781 717q-6 6 -14.5 6t-14.5 -6l-56 -57
q-6 -6 -6 -14t6 -14q3 -3 6.5 -4.5t7.5 -1.5t7.5 1.5t6.5 4.5l57 56q6 6 6 14.5t-6 14.5zM878 814q-36 35 -77 62q-41 28 -85.5 46.5t-93.5 27.5q-48 10 -98 10q-73 0 -142.5 -20.5t-130.5 -60.5q-7 -4 -8.5 -12.5t2.5 -14.5q5 -7 13 -9t15 3q56 36 120 55t131 19
q95 0 179 -36t146.5 -98.5t98.5 -146.5t36 -179q0 -29 -3.5 -58t-10.5 -57q-3 -8 1.5 -15t12.5 -9q1 -1 2.5 -1h2.5q7 0 12.5 4t6.5 11q8 31 12 62t4 63q0 50 -10 98q-9 49 -27.5 93.5t-46.5 85.5q-27 41 -62 77v0zM957 266q-8 4 -15.5 1t-11.5 -11q-7 -15 -15 -30t-17 -29
q-5 -7 -3 -15t8 -13l6 -2t5 -1q5 0 9.5 2.5t7.5 6.5q10 16 19 32t17 33q3 7 0 15t-10 11v0zM779 45q-5 6 -13 8t-15 -3q-56 -36 -120 -55t-131 -19q-95 0 -179 36t-146.5 98.5t-98.5 146.5t-36 179q0 29 3.5 58t10.5 57q3 8 -1.5 15t-12.5 9t-15 -2t-9 -12q-8 -31 -12 -62
t-4 -63q0 -50 10 -98q9 -49 27.5 -93.5t46.5 -85.5q27 -41 62 -77q36 -35 77 -62q41 -28 85.5 -46.5t93.5 -27.5q48 -10 98 -10q73 0 142.5 20.5t130.5 60.5q7 4 8.5 12.5t-2.5 14.5v1zM121 727q-7 4 -15.5 2.5t-12.5 -8.5q-10 -16 -19 -32t-17 -33q-3 -7 0 -15t10 -11
q2 -1 4 -1.5t5 -0.5q5 0 10 3t8 9q7 15 15 30t17 29q5 7 3 15t-8 13v0z" />
    <glyph glyph-name="uniE910" unicode="&#xe910;" 
d="M672 262q-8 0 -14 -6t-6 -14t6 -14t14 -6t14 6t6 14t-6 14t-14 6zM100 960h-80q-8 0 -14 -6t-6 -14v-80q0 -8 6 -14t14 -6h80q8 0 14 6t6 14v80q0 8 -6 14t-14 6zM80 880h-40v40h40v-40zM100 56h-80q-8 0 -14 -6t-6 -14v-80q0 -8 6 -14t14 -6h80q8 0 14 6t6 14v80
q0 8 -6 14t-14 6zM80 -24h-40v40h40v-40zM1004 960h-80q-8 0 -14 -6t-6 -14v-80q0 -8 6 -14t14 -6h80q8 0 14 6t6 14v80q0 8 -6 14t-14 6zM984 880h-40v40h40v-40zM1004 56h-80q-8 0 -14 -6t-6 -14v-80q0 -8 6 -14t14 -6h80q8 0 14 6t6 14v80q0 8 -6 14t-14 6zM984 -24h-40
v40h40v-40zM60 794q-8 0 -14 -6t-6 -14v-40q0 -8 6 -14t14 -6t14 6t6 14v40q0 8 -6 14t-14 6zM60 668q-8 0 -14 -6t-6 -14v-40q0 -8 6 -14t14 -6t14 6t6 14v40q0 8 -6 14t-14 6zM60 548q-8 0 -14 -6t-6 -14v-40q0 -8 6 -14t14 -6t14 6t6 14v40q0 8 -6 14t-14 6zM60 428
q-8 0 -14 -6t-6 -14v-40q0 -8 6 -14t14 -6t14 6t6 14v40q0 8 -6 14t-14 6zM60 302q-8 0 -14 -6t-6 -14v-40q0 -8 6 -14t14 -6t14 6t6 14v40q0 8 -6 14t-14 6zM60 176q-8 0 -14 -6t-6 -14v-40q0 -8 6 -14t14 -6t14 6t6 14v40q0 8 -6 14t-14 6zM964 794q-8 0 -14 -6t-6 -14
v-40q0 -8 6 -14t14 -6t14 6t6 14v40q0 8 -6 14t-14 6zM964 668q-8 0 -14 -6t-6 -14v-40q0 -8 6 -14t14 -6t14 6t6 14v40q0 8 -6 14t-14 6zM964 548q-8 0 -14 -6t-6 -14v-40q0 -8 6 -14t14 -6t14 6t6 14v40q0 8 -6 14t-14 6zM964 428q-8 0 -14 -6t-6 -14v-40q0 -8 6 -14
t14 -6t14 6t6 14v40q0 8 -6 14t-14 6zM964 302q-8 0 -14 -6t-6 -14v-40q0 -8 6 -14t14 -6t14 6t6 14v40q0 8 -6 14t-14 6zM964 176q-8 0 -14 -6t-6 -14v-40q0 -8 6 -14t14 -6t14 6t6 14v40q0 8 -6 14t-14 6zM226 16h-40q-8 0 -14 -6t-6 -14t6 -14t14 -6h40q8 0 14 6t6 14
t-6 14t-14 6zM352 16h-40q-8 0 -14 -6t-6 -14t6 -14t14 -6h40q8 0 14 6t6 14t-6 14t-14 6zM472 16h-40q-8 0 -14 -6t-6 -14t6 -14t14 -6h40q8 0 14 6t6 14t-6 14t-14 6zM592 16h-40q-8 0 -14 -6t-6 -14t6 -14t14 -6h40q8 0 14 6t6 14t-6 14t-14 6zM712 16h-40q-8 0 -14 -6
t-6 -14t6 -14t14 -6h40q8 0 14 6t6 14t-6 14t-14 6zM838 16h-40q-8 0 -14 -6t-6 -14t6 -14t14 -6h40q8 0 14 6t6 14t-6 14t-14 6zM226 920h-40q-8 0 -14 -6t-6 -14t6 -14t14 -6h40q8 0 14 6t6 14t-6 14t-14 6zM352 920h-40q-8 0 -14 -6t-6 -14t6 -14t14 -6h40q8 0 14 6t6 14
t-6 14t-14 6zM472 920h-40q-8 0 -14 -6t-6 -14t6 -14t14 -6h40q8 0 14 6t6 14t-6 14t-14 6zM592 920h-40q-8 0 -14 -6t-6 -14t6 -14t14 -6h40q8 0 14 6t6 14t-6 14t-14 6zM712 920h-40q-8 0 -14 -6t-6 -14t6 -14t14 -6h40q8 0 14 6t6 14t-6 14t-14 6zM838 920h-40
q-8 0 -14 -6t-6 -14t6 -14t14 -6h40q8 0 14 6t6 14t-6 14t-14 6zM838 794h-652q-8 0 -14 -6t-6 -14v-658q0 -8 6 -14t14 -6h652q8 0 14 6t6 14v206v0v0v452q0 8 -6 14t-14 6zM818 262h-66q-8 0 -14 -6t-6 -14t6 -14t14 -6h66v-86h-612v86h346q8 0 14 6t6 14t-6 14t-14 6
h-346v98l166 160l126 -126l103 -109q3 -3 6.5 -4.5t7.5 -1.5t7.5 1t6.5 4q6 6 6.5 14t-5.5 14l-71 75l93 93l166 -166v-52v0zM818 370l-152 152q-6 6 -14 6t-14 -6l-106 -106l-146 146q-6 6 -14 6t-14 -6l-152 -147v339h612v-384v0zM552 668q-25 0 -42.5 -17.5t-17.5 -42.5
t17.5 -42.5t42.5 -17.5t42.5 17.5t17.5 42.5t-17.5 42.5t-42.5 17.5zM552 588q-8 0 -14 6t-6 14t6 14t14 6t14 -6t6 -14t-6 -14t-14 -6z" />
    <glyph glyph-name="uniE911" unicode="&#xe911;" 
d="M425 616q-6 6 -14.5 6t-14.5 -6q-5 -6 -5 -14t5 -14q6 -6 14.5 -6t14.5 6t6 14t-6 14zM906 361l-328 328v91q0 74 -52.5 127t-127.5 53q-74 0 -127 -53t-53 -127v-230l-159 -159v0v0v0v0l-30 -30q-29 -29 -29 -70.5t29 -70.5l255 -255q14 -14 32 -21.5t38 -7.5t38.5 7.5
t32.5 21.5l30 30v0v0v0v0l332 332h105q6 0 11 3.5t7 8.5q2 6 1 12t-5 10v0zM544 509q3 3 7 4.5t7 1.5q4 0 8 -1.5t7 -4.5q2 -3 3.5 -6.5t1.5 -7.5t-1.5 -8t-3.5 -6v0v0q-3 -3 -7 -4.5t-8 -1.5t-7.5 1.5t-6.5 4.5q-2 2 -4 6t-2 8t2 7.5t4 6.5zM398 920q58 0 99 -41t41 -99
v-51l-56 56q-3 3 -7 4.5t-7 1.5q-4 0 -8 -1.5t-7 -4.5l-195 -195v190v0q0 58 41 99t99 41v0zM397 -6q-9 -9 -20 -13.5t-23 -4.5t-23 4.5t-19 13.5l-254 254q-18 18 -18 42.5t18 42.5l15 16l339 -340zM779 367q-4 0 -8 -1.5t-7 -4.5l-323 -323l-340 339l152 151v0v0l215 215
l70 -71v-121q-6 -2 -11.5 -5.5t-10.5 -8.5q-8 -8 -13 -19t-5 -23t5 -23t13 -20q9 -8 19.5 -12.5t22.5 -4.5t23 4.5t20 12.5q8 9 12.5 20t4.5 23t-4.5 23t-12.5 19q-5 5 -11 8.5t-12 5.5v81l265 -265h-64v0zM368 560q-6 5 -14 5t-14 -5l-170 -170q-6 -6 -6 -14t6 -14
q3 -3 7 -4.5t7 -1.5q4 0 8 1.5t6 4.5l170 169q6 6 6 14.5t-6 14.5zM941 219q-3 4 -7.5 6.5t-9.5 2.5t-9.5 -2.5t-7.5 -6.5q-10 -17 -46.5 -82t-36.5 -101q0 -41 29.5 -70.5t70.5 -29.5t70.5 29.5t29.5 70.5q0 36 -36.5 101t-46.5 82zM924 -24q-25 0 -42.5 17.5t-17.5 42.5
q0 17 19 56.5t41 76.5q22 -37 41 -76.5t19 -56.5q0 -25 -17.5 -42.5t-42.5 -17.5v0z" />
    <glyph glyph-name="uniE912" unicode="&#xe912;" 
d="M36 651q14 0 24.5 10t10.5 25v152l230 -229q5 -6 11.5 -8.5t13.5 -2.5t13.5 2.5t11.5 8.5q11 10 11 25t-11 25l-229 230h152q15 0 25.5 10.5t10.5 24.5q0 15 -10.5 25.5t-25.5 10.5h-238q-15 0 -25.5 -10.5t-10.5 -25.5v-238q0 -15 10.5 -25t25.5 -10v0zM988 245
q-14 0 -24.5 -10t-10.5 -25v-152l-237 237q-11 10 -25.5 10t-25.5 -10q-10 -11 -10 -25.5t10 -25.5l237 -237h-152q-15 0 -25 -10.5t-10 -24.5q0 -15 10 -25.5t25 -10.5h238q15 0 25.5 10.5t10.5 25.5v238q0 15 -10.5 25t-25.5 10v0zM308 295l-237 -237v152q0 15 -10.5 25
t-24.5 10q-15 0 -25.5 -10t-10.5 -25v-238q0 -15 10.5 -25.5t25.5 -10.5h238q15 0 25.5 10.5t10.5 25.5q0 14 -10.5 24.5t-25.5 10.5h-152l237 237q10 11 10 25.5t-10 25.5q-11 10 -25.5 10t-25.5 -10v0zM988 960h-238q-15 0 -25 -10.5t-10 -25.5q0 -14 10 -24.5t25 -10.5
h152l-229 -230q-11 -10 -11 -25t11 -25q5 -6 11.5 -8.5t13.5 -2.5t13.5 2.5t11.5 8.5l230 229v-152q0 -15 10.5 -25t24.5 -10q15 0 25.5 10t10.5 25v238q0 15 -10.5 25.5t-25.5 10.5v0z" />
    <glyph glyph-name="uniE913" unicode="&#xe913;" horiz-adv-x="1280" 
d="M541 466v-508h-512v336q0 48 4 93q4 46 12.5 89.5t20.5 84.5q13 42 29 81q17 39 39 78q22 40 50 79t61 79q34 39 73 78l190 -146q-44 -49 -78 -94t-59 -85q-24 -40 -40 -81.5t-24 -83.5h234v0zM1247 466v-508h-512v336q0 48 4 93q4 46 12.5 89.5t20.5 84.5q12 42 29 81
q16 39 39 78q22 40 49.5 79t61.5 79q34 39 73 78l190 -146q-44 -49 -78 -94t-59 -85t-41 -81.5t-23 -83.5h234v0z" />
    <glyph glyph-name="uniE914" unicode="&#xe914;" 
d="M372 808l-37 74q-5 10 -14 15.5t-20 5.5h-263q-16 0 -27 -11t-11 -27v-531q0 -15 11 -26.5t27 -11.5h739v38h-739v531h263l37 -74q5 -9 14 -15t20 -6h462v-75h38v151q0 16 -11 27t-27 11h-455v-38h455v-38h-462zM417 410h76q8 0 13.5 5.5t5.5 13.5v114q24 19 33.5 48
t-0.5 58t-34.5 47t-55.5 18t-55.5 -18t-34.5 -47t-0.5 -58t33.5 -48v-114q0 -8 5.5 -13.5t13.5 -5.5v0zM455 676q24 0 40.5 -17t16.5 -40q0 -16 -7.5 -29t-20.5 -20q-5 -3 -7.5 -7.5t-2.5 -9.5v-105h-38v105q0 5 -2.5 9.5t-6.5 7.5q-14 7 -21.5 20t-7.5 29q0 23 17 40t40 17
v0zM872 220q-31 0 -53.5 -22t-22.5 -53q0 -32 22.5 -54t53.5 -22q32 0 54 22t22 54q0 31 -22 53t-54 22zM872 107q-15 0 -26.5 11t-11.5 27q0 15 11.5 26.5t26.5 11.5q16 0 27 -11.5t11 -26.5q0 -16 -11 -27t-27 -11zM929 285v353q0 7 -5.5 13t-13.5 6h-76q-7 0 -13 -6
t-6 -13v-19h-19q-7 0 -13 -5.5t-6 -13.5v-57q0 -8 6 -13.5t13 -5.5h19v-38h-38q-7 0 -12.5 -5.5t-5.5 -13.5v-76q0 -8 5.5 -13.5t12.5 -5.5h38v-87q-50 -20 -76 -68t-16 -101q11 -54 53 -88.5t96 -34.5q55 0 97 34.5t52 88.5q11 53 -15 101t-77 68v0zM872 31q-42 0 -74 27.5
t-38 69.5t16.5 77.5t63.5 48.5q6 1 9.5 6t3.5 12v119q0 8 -5.5 13.5t-13.5 5.5h-38v38h38q8 0 13.5 5.5t5.5 13.5v76q0 8 -5.5 13.5t-13.5 5.5h-19v19h19q8 0 13.5 5.5t5.5 13.5v19h38v-347q0 -7 4 -12t10 -6q40 -13 63 -48.5t17 -77.5t-38 -69.5t-75 -27.5v0zM0 258h341
v-38h-341v38zM379 258h304v-38h-304v38z" />
    <glyph glyph-name="uniE915" unicode="&#xe915;" 
d="M1023 707q0 21 -15 36.5t-37 15.5v0v0l-919 -1q-10 0 -19.5 -4t-17.5 -12q-7 -7 -11 -16.5t-4 -20.5l1 -516q0 -10 4 -19.5t11 -17.5q8 -7 17.5 -11t19.5 -4v0v0l919 1q21 0 36.5 15.5t15.5 37.5zM913 707l-401 -279l-402 277zM682 375l238 -184l-816 -2l239 186
q9 7 10 17.5t-5 19.5q-7 8 -17.5 9.5t-19.5 -4.5l-258 -200l-1 465l445 -308q4 -2 7.5 -3t7.5 -1t8 1t7 3l444 309l1 -466l-258 200q-9 6 -19.5 4.5t-17.5 -9.5q-7 -9 -5.5 -19.5t10.5 -17.5v0z" />
    <glyph glyph-name="uniE916" unicode="&#xe916;" 
d="M512 828q-79 0 -148 -30t-120.5 -81.5t-81.5 -120.5t-30 -148t30 -148t81.5 -120.5t120.5 -81.5t148 -30t148 30t120.5 81.5t81.5 120.5t30 148t-30 148t-81.5 120.5t-120.5 81.5t-148 30zM345 744q-14 -19 -23.5 -40.5t-14.5 -45.5q-12 2 -24 6.5t-24 10.5
q19 21 40.5 38.5t45.5 30.5v0zM234 644q16 -10 34 -16.5t36 -9.5v-150h-131q2 49 18 93.5t43 82.5v0zM234 252q-27 38 -43 82.5t-18 93.5h131v-150q-18 -3 -36 -9.5t-34 -16.5v0zM259 221q12 6 24 10.5t24 6.5q5 -24 14.5 -45.5t23.5 -40.5q-24 13 -45.5 30.5t-40.5 38.5z
M492 109q-54 7 -93.5 43.5t-50.5 88.5h144v-132zM492 281h-148v147h148v-147zM492 468h-148v147h148v-147zM492 655h-144q11 52 50.5 88.5t93.5 43.5v-132zM790 644q27 -38 43 -82.5t18 -93.5h-131v150q18 3 36 9.5t34 16.5zM765 675q-12 -6 -24 -10.5t-24 -6.5
q-5 24 -14.5 45.5t-23.5 40.5q24 -13 45.5 -30.5t40.5 -38.5zM532 787q54 -7 93.5 -43.5t50.5 -88.5h-144v132zM532 615h148v-147h-148v147zM532 428h148v-147h-148v147zM532 109v132h144q-11 -52 -50.5 -88.5t-93.5 -43.5zM679 152q14 19 23.5 40.5t14.5 45.5
q12 -2 24 -6.5t24 -10.5q-19 -21 -40.5 -38.5t-45.5 -30.5v0zM790 252q-16 10 -34 16.5t-36 9.5v150h131q-2 -49 -18 -93.5t-43 -82.5v0zM812 58q-5 6 -13 7.5t-15 -3.5q-60 -42 -129 -64t-143 -22q-41 0 -80.5 7t-77.5 20q-8 3 -15.5 -0.5t-10.5 -11.5t1 -15.5t11 -9.5
q42 -15 85 -22.5t87 -7.5q80 0 155 24t140 70q7 4 8.5 12.5t-3.5 15.5v0zM704 923q-46 18 -94 27.5t-98 9.5q-41 0 -81 -6q-40 -7 -78 -19t-74 -31q-35 -18 -68 -42q-7 -5 -8.5 -13t3.5 -15q3 -4 7.5 -6t8.5 -2q3 0 6 1t6 3q61 44 132 67t146 23q46 0 90.5 -8.5t86.5 -25.5
q7 -3 15 0t11 11t-0.5 15.5t-10.5 10.5zM923 753q6 10 9.5 20.5t3.5 22.5q0 15 -6 29t-16 25q-11 10 -25 16t-29 6t-29 -6t-25 -16q-11 -11 -16.5 -25t-5.5 -29t5.5 -29t16.5 -25t25 -16.5t29 -5.5q9 0 17 2t16 5q44 -61 67.5 -132t23.5 -147q0 -46 -8.5 -90.5t-26.5 -87.5
q-3 -7 0.5 -15t10.5 -11q2 0 4 -0.5t4 -0.5q6 0 11 3t7 9q19 46 28.5 94.5t9.5 98.5q0 42 -6 82q-7 41 -19.5 79.5t-31.5 74.5t-44 69zM885 770q-5 -5 -11.5 -7.5t-13.5 -2.5t-13.5 2.5t-12.5 7.5q-5 6 -7.5 12.5t-2.5 13.5t2.5 13.5t7.5 11.5q6 5 12.5 8t13.5 3t13.5 -3
t11.5 -8t8 -11.5t3 -13.5t-3 -13.5t-8 -12.5zM207 143q-14 13 -31.5 16t-34.5 -3q-49 63 -75 137.5t-26 154.5q0 38 6 74.5t17 72.5q3 7 -1 14.5t-12 10.5q-7 2 -14.5 -1.5t-10.5 -11.5q-12 -38 -18.5 -78t-6.5 -81q0 -44 7 -86q7 -43 21 -83t35 -78q21 -37 48 -72v0h1
q-10 -17 -7.5 -37t17.5 -34q8 -9 19.5 -13.5t22.5 -4.5q12 0 23 4.5t20 13.5q17 17 17 42t-17 43v0zM178 86q-3 -3 -6.5 -4.5t-7.5 -1.5t-7.5 1.5t-6.5 4.5t-4.5 6.5t-1.5 7.5t1.5 7.5t4.5 6.5t6.5 4.5t7.5 1.5t7.5 -1.5t6.5 -4.5t4.5 -6.5t1.5 -7.5t-1.5 -7.5t-4.5 -6.5z
M178 810q-3 3 -6.5 4.5t-7.5 1.5t-7.5 -1.5t-6.5 -4.5t-4.5 -6.5t-1.5 -7.5t1.5 -7.5t4.5 -6.5t6.5 -4.5t7.5 -1.5t7.5 1.5t6.5 4.5t4.5 6.5t1.5 7.5t-1.5 7.5t-4.5 6.5zM874 114q-3 3 -6.5 4.5t-7.5 1.5t-7.5 -1.5t-6.5 -4.5t-4.5 -6.5t-1.5 -7.5t1.5 -7.5t4.5 -6.5
t6.5 -4.5t7.5 -1.5t7.5 1.5t6.5 4.5t4.5 6.5t1.5 7.5t-1.5 7.5t-4.5 6.5z" />
    <glyph glyph-name="uniE917" unicode="&#xe917;" 
d="M896 426q9 0 14.5 6t5.5 14v2q0 8 -5.5 14t-14.5 6q-8 0 -14 -6t-6 -14v-1q0 -9 6 -14.5t14 -5.5v-1zM874 810q-36 36 -78 64t-88 47t-95 29q-50 10 -101 10q-8 0 -14 -6t-6 -14v-108q0 -8 6 -14t14 -6q62 0 120 -20q57 -20 103.5 -56t80.5 -87q34 -50 49 -111
q2 -8 9 -12t15 -2t12.5 9t2.5 15q-17 65 -52 119q-35 55 -84.5 94.5t-109.5 63.5t-126 27v68q94 -4 177 -43q82 -38 143 -102t97 -148q35 -84 35 -179q0 -98 -37 -184q-37 -85 -101.5 -149.5t-149.5 -101.5q-86 -37 -184 -37t-184 37q-85 37 -149.5 101.5t-101.5 149.5
q-37 86 -37 184q0 47 9 93q9 45 26.5 87.5t43.5 81.5q26 38 59 72q6 6 6 14t-6 14l-2 2h88v-88l-10 10q-2 3 -6 4.5t-8 1.5t-7.5 -1.5t-6.5 -4.5q-57 -57 -87.5 -131t-30.5 -155q0 -84 32 -157q31 -74 86 -129t129 -86q73 -32 157 -32q69 0 132 22t114.5 61.5t89.5 95.5
q37 55 55 121q2 8 -2 15.5t-12 9.5t-15.5 -2t-9.5 -12q-16 -60 -49 -110q-34 -50 -80.5 -85.5t-103.5 -55.5t-119 -20q-75 0 -142 28q-66 29 -115.5 78.5t-78.5 115.5q-28 67 -28 142q0 68 24 130.5t69 112.5l29 -29q4 -4 10 -5.5t12 1.5q5 2 8.5 7t3.5 11v156q0 8 -6 14
t-14 6h-156q-6 0 -11 -3.5t-7 -8.5q-3 -6 -1.5 -12t5.5 -10l22 -22q-33 -36 -58 -76q-26 -41 -43 -85t-26 -91t-9 -96q0 -51 10 -101q10 -49 29 -95t47 -88t64 -78t78 -64t88 -47t95 -29q50 -10 101 -10t101 10q49 10 95 29t88 47t78 64t64 78t47 88t29 95q10 50 10 101
t-10 101q-10 49 -29 95t-47 88t-64 78v0zM371 188h282q21 0 35.5 15t14.5 35v20q0 18 -11 31.5t-28 17.5q-4 42 -24 78.5t-52 62.5q32 26 52 62.5t24 78.5q17 4 28 17.5t11 31.5v20q0 20 -14.5 35t-35.5 15h-62q-8 0 -14 -6t-6 -14t6 -14t14 -6h62q4 0 7 -3t3 -7v-20
q0 -4 -3 -7t-7 -3h-282q-4 0 -7 3t-3 7v20q0 4 3 7t7 3h62q8 0 14 6t6 14t-6 14t-14 6h-62q-21 0 -35.5 -15t-14.5 -35v-20q0 -18 11 -31.5t28 -17.5q4 -42 24 -78.5t52 -62.5q-32 -26 -52 -62.5t-24 -78.5q-17 -4 -28 -17.5t-11 -31.5v-20q0 -20 14.5 -35t35.5 -15z
M663 238q0 -4 -3 -7t-7 -3h-282q-4 0 -7 3t-3 7v20q0 4 3 7t7 3h282q4 0 7 -3t3 -7v-20zM482 431q5 2 7.5 7t2.5 10t-2.5 10t-7.5 7q-34 20 -55.5 52.5t-26.5 70.5h224q-5 -38 -26.5 -70.5t-55.5 -52.5q-5 -2 -7.5 -7t-2.5 -10t2.5 -10t7.5 -7q34 -20 55.5 -52.5t26.5 -70.5
h-224q5 38 26.5 70.5t55.5 52.5zM526 674q3 3 4.5 6.5t1.5 7.5t-1.5 7.5t-4.5 6.5t-6.5 4.5t-7.5 1.5t-7.5 -1.5t-6.5 -4.5t-4.5 -6.5t-1.5 -7.5t1.5 -7.5t4.5 -6.5t6.5 -4.5t7.5 -1.5t7.5 1.5t6.5 4.5z" />
    <glyph glyph-name="uniE918" unicode="&#xe918;" 
d="M724 188q-8 0 -14 -6t-6 -14t6 -14t14 -6t14 6t6 14t-6 14t-14 6zM300 188q-8 0 -14 -6t-6 -14t6 -14t14 -6t14 6t6 14t-6 14t-14 6zM1004 908h-160q-8 0 -14 -6t-6 -14v-540h-444q12 13 24.5 26.5t23.5 27.5q38 43 68 83.5t49 73.5h2h3q19 0 37.5 7.5t32.5 21.5
q26 26 42.5 94.5t19.5 86.5q1 5 -0.5 9.5t-4.5 7.5q-4 4 -8.5 5.5t-9.5 0.5q-18 -3 -86.5 -20t-93.5 -42q-16 -16 -23.5 -36t-5.5 -41q-33 -19 -73.5 -49t-83.5 -68v0v0q-23 -20 -46.5 -41.5t-46.5 -44.5v278v1.5v0.5v0.5v0.5v0.5v0.5q-1 0 -1 0.5v0.5v0.5v0.5v1v0l-0.5 0.5
t-0.5 1.5v0v0v0v0v0l-80 160q-3 5 -7.5 8t-10.5 3t-10.5 -3t-7.5 -8l-80 -160v0v0v0v0v0q0 -1 -0.5 -1.5l-0.5 -0.5v0v-1v-0.5v-0.5v-0.5t-1 -0.5v-0.5v-0.5v-0.5v-0.5v-0.5v-1.5v-560q0 -74 53 -127t127 -53h664q74 0 127 53t53 127v720q0 8 -6 14t-14 6zM507 702
q12 11 51.5 23.5t78.5 21.5q-8 -39 -20.5 -79t-24.5 -51q-11 -11 -25 -15.5t-29 -1.5v0v0q-9 2 -17 6t-14 11q-6 6 -10 13.5t-6 15.5q-3 15 1 30t15 26zM461 613q4 -7 8.5 -13t9.5 -12q6 -5 12.5 -10t13.5 -8q-17 -28 -41.5 -61t-54.5 -68q-12 7 -22.5 15.5t-20.5 18.5
t-18.5 20.5t-15.5 21.5q36 30 68.5 54.5t60.5 41.5v0zM200 393q25 26 50.5 50.5t51.5 46.5q7 -11 16 -22t19 -21q11 -10 22 -19.5t23 -17.5q-14 -15 -28.5 -31t-29.5 -31h-124v45v0zM100 843l55 -110q-24 -18 -55 -18t-55 18l55 110v0zM40 689q14 -7 29.5 -10.5t30.5 -3.5
t30.5 3.5t29.5 10.5v-342q-36 -4 -67 -21.5t-53 -44.5v408v0zM844 28h-664q-58 0 -99 41t-41 99t41 99t99 41h664q58 0 99 -41t41 -99t-41 -99t-99 -41zM984 828h-40q-8 0 -14 -6t-6 -14t6 -14t14 -6h40v-40h-40q-8 0 -14 -6t-6 -14t6 -14t14 -6h40v-40h-40q-8 0 -14 -6
t-6 -14t6 -14t14 -6h40v-40h-40q-8 0 -14 -6t-6 -14t6 -14t14 -6h40v-40h-40q-8 0 -14 -6t-6 -14t6 -14t14 -6h40v-40h-40q-8 0 -14 -6t-6 -14t6 -14t14 -6h40v-107q-22 27 -53 44.5t-67 21.5v521h120v-40v0zM844 228q-25 0 -42.5 -17.5t-17.5 -42.5t17.5 -42.5t42.5 -17.5
t42.5 17.5t17.5 42.5t-17.5 42.5t-42.5 17.5zM844 148q-8 0 -14 6t-6 14t6 14t14 6t14 -6t6 -14t-6 -14t-14 -6zM180 228q-25 0 -42.5 -17.5t-17.5 -42.5t17.5 -42.5t42.5 -17.5t42.5 17.5t17.5 42.5t-17.5 42.5t-42.5 17.5zM180 148q-8 0 -14 6t-6 14t6 14t14 6t14 -6
t6 -14t-6 -14t-14 -6zM644 188h-264q-8 0 -14 -6t-6 -14t6 -14t14 -6h264q8 0 14 6t6 14t-6 14t-14 6z" />
    <glyph glyph-name="uniE919" unicode="&#xe919;" 
d="M862 270q10 11 10 26t-10 26q-11 10 -26.5 10t-25.5 -10l-262 -262v864q0 15 -10.5 25.5t-25.5 10.5t-26 -10.5t-11 -25.5v-864l-261 262q-11 10 -26 10t-26 -10q-10 -11 -10 -26t10 -26l324 -324q11 -10 26 -10t26 10l324 324v0z" />
    <glyph glyph-name="uniE91A" unicode="&#xe91a;" 
d="M334 797q11 11 26 11t26 -11q10 -10 10 -25.5t-10 -25.5l-262 -262h863q15 0 26 -10.5t11 -25.5t-11 -25.5t-26 -10.5h-863l262 -262q10 -10 10 -25.5t-10 -25.5q-11 -11 -26 -11t-26 11l-324 323q-10 11 -10 26t10 26l324 323v0z" />
    <glyph glyph-name="uniE91B" unicode="&#xe91b;" 
d="M690 797q-11 11 -26 11t-26 -11q-11 -10 -11 -25t11 -26l262 -262h-864q-15 0 -25.5 -10.5t-10.5 -25.5t10.5 -25.5t25.5 -10.5h864l-262 -262q-11 -10 -11 -25.5t11 -25.5q11 -11 26 -11t26 11l323 323q11 11 11 26t-11 26l-323 323v0z" />
    <glyph glyph-name="uniE91C" unicode="&#xe91c;" 
d="M154 73h34q7 0 12 5t5 12t-5 12t-12 5h-34q-7 0 -12 -5t-5 -12t5 -12t12 -5v0zM631 226q0 7 -5 12t-12 5h-51q-7 0 -12 -5t-5 -12t5 -12t12 -5h51q7 0 12 5t5 12zM256 619h171q7 0 12 5t5 12t-5 12t-12 5h-171q-7 0 -12 -5t-5 -12t5 -12t12 -5zM529 141h34q7 0 12 5t5 12
t-5 12t-12 5h-34q-7 0 -12 -5t-5 -12t5 -12t12 -5zM580 567q0 -7 5 -12t12 -5h171q7 0 12 5t5 12q0 8 -5 13t-12 5h-171q-7 0 -12 -5t-5 -13v0zM410 90q0 -7 5 -12t12 -5h170q7 0 12 5t5 12t-5 12t-12 5h-170q-7 0 -12 -5t-5 -12zM734 619q7 0 12 5t5 12t-5 12t-12 5h-68
q-7 0 -12 -5t-5 -12t5 -12t12 -5h68zM495 243h-102q-8 0 -13 -5t-5 -12t5 -12t13 -5h102q7 0 12 5t5 12t-5 12t-12 5v0zM256 550h273q7 0 12 5t5 12q0 8 -5 13t-12 5h-273q-7 0 -12 -5t-5 -13q0 -7 5 -12t12 -5v0zM154 550h34q7 0 12 5t5 12q0 8 -5 13t-12 5h-34
q-7 0 -12 -5t-5 -13q0 -7 5 -12t12 -5v0zM154 619h34q7 0 12 5t5 12t-5 12t-12 5h-34q-7 0 -12 -5t-5 -12t5 -12t12 -5v0zM154 482h34q7 0 12 5t5 12t-5 12t-12 5h-34q-7 0 -12 -5t-5 -12t5 -12t12 -5v0zM666 -30h-581q-21 0 -36 15t-15 36v683q0 7 -5 12t-12 5t-12 -5
t-5 -12v-683q0 -35 25 -60t60 -25h581q7 0 12 5t5 12t-5 12t-12 5zM154 141h34q7 0 12 5t5 12t-5 12t-12 5h-34q-7 0 -12 -5t-5 -12t5 -12t12 -5v0zM154 414h34q7 0 12 5t5 12t-5 12t-12 5h-34q-7 0 -12 -5t-5 -12t5 -12t12 -5v0zM154 277h34q7 0 12 5t5 12t-5 12t-12 5h-34
q-7 0 -12 -5t-5 -12t5 -12t12 -5v0zM154 209h34q7 0 12 5t5 12t-5 12t-12 5h-34q-7 0 -12 -5t-5 -12t5 -12t12 -5v0zM154 346h34q7 0 12 5t5 12t-5 12t-12 5h-34q-7 0 -12 -5t-5 -12t5 -12t12 -5v0zM256 482h68q7 0 12 5t5 12t-5 12t-12 5h-68q-7 0 -12 -5t-5 -12t5 -12
t12 -5zM666 294q0 7 -5 12t-12 5h-120q-7 0 -12 -5t-5 -12t5 -12t12 -5h120q7 0 12 5t5 12zM256 209h68q7 0 12 5t5 12t-5 12t-12 5h-68q-7 0 -12 -5t-5 -12t5 -12t12 -5zM1007 175h-26q-1 4 -2.5 7.5t-3.5 7.5l18 18q5 5 5 12t-5 12l-48 49q-5 5 -12 5t-12 -5l-19 -19
q-3 2 -7 3.5t-8 2.5v26q0 7 -5 12t-12 5h-68q-7 0 -12 -5t-5 -12v-26q-4 -1 -7.5 -2.5t-7.5 -3.5l-18 19q-5 4 -12.5 4t-11.5 -4l-49 -49q-5 -5 -5 -12t5 -12l19 -18q-2 -4 -3.5 -7.5t-2.5 -7.5h-26q-7 0 -12 -5t-5 -12v-68q0 -7 5 -12t12 -5h26q1 -4 2.5 -8t3.5 -7l-19 -19
q-5 -5 -5 -12t5 -12l49 -48q4 -5 11.5 -5t12.5 5l18 18q4 -2 7.5 -3.5t7.5 -2.5v-26q0 -7 5 -12t12 -5h68q7 0 12 5t5 12v26q4 1 8 2.5t7 3.5l19 -18q2 -3 5 -4t7 -1q3 0 6 1t6 4l48 48q5 5 5 12t-5 12l-18 19q2 3 3.5 7t2.5 8h26q7 0 12 5t5 12v68q0 7 -5 12t-12 5v0z
M990 107h-22q-6 0 -10.5 -3.5t-5.5 -9.5q-2 -8 -5.5 -16t-7.5 -15q-3 -5 -2 -10.5t5 -10.5l15 -15l-24 -24l-15 15q-5 4 -10.5 5t-10.5 -2q-7 -4 -15 -7.5t-16 -5.5q-6 -1 -9.5 -5.5t-3.5 -10.5v-22h-34v22q0 6 -3.5 10.5t-9.5 5.5q-8 2 -15.5 5.5t-14.5 7.5q-5 3 -11 2
t-10 -5l-15 -15l-24 24l15 15q4 5 4.5 10.5t-2.5 10.5q-4 7 -7 15t-5 16q-2 6 -6.5 9.5t-10.5 3.5h-21v34h21q6 0 10.5 3.5t6.5 9.5q2 8 5 15.5t7 14.5q3 5 2.5 11t-4.5 10l-15 15l24 24l15 -15q4 -4 10 -4.5t11 2.5q7 4 14.5 7t15.5 5q6 2 9.5 6.5t3.5 10.5v21h34v-21
q0 -6 3.5 -10.5t9.5 -6.5q8 -2 16 -5t15 -7q5 -3 10.5 -2.5t10.5 4.5l15 15l24 -24l-15 -15q-4 -4 -5 -10t2 -11q4 -7 7.5 -14.5t5.5 -15.5q1 -6 5.5 -9.5t10.5 -3.5h22v-34v0zM256 141h205q7 0 12 5t5 12t-5 12t-12 5h-205q-7 0 -12 -5t-5 -12t5 -12t12 -5zM836 175
q-21 0 -36 -15t-15 -36t15 -36t36 -15t36 15t15 36t-15 36t-36 15zM836 107q-7 0 -12 5t-5 12t5 12t12 5t12 -5t5 -12t-5 -12t-12 -5zM939 960h-854q-35 0 -60 -25t-25 -60v-103q0 -7 5 -12t12 -5h922q7 0 12 5t5 12t-5 12t-12 5h-905v86q0 21 15 36t36 15h854q21 0 36 -15
t15 -36v-581q0 -7 5 -12t12 -5t12 5t5 12v581q0 35 -25 60t-60 25v0zM102 858q0 -15 10 -25t25 -10q14 0 24 10t10 25q0 14 -10 24t-24 10q-15 0 -25 -10t-10 -24v0zM205 858q0 -15 10 -25t24 -10t24 10t10 25q0 14 -10 24t-24 10t-24 -10t-10 -24zM307 858q0 -15 10 -25
t24 -10t24 10t10 25q0 14 -10 24t-24 10t-24 -10t-10 -24zM256 73h102q7 0 12 5t5 12t-5 12t-12 5h-102q-7 0 -12 -5t-5 -12t5 -12t12 -5v0zM734 414q7 0 12 5t5 12t-5 12t-12 5h-137q-7 0 -12 -5t-5 -12t5 -12t12 -5h137zM853 499q0 7 -5 12t-12 5h-273q-7 0 -12 -5t-5 -12
t5 -12t12 -5h273q7 0 12 5t5 12v0zM597 653h-102q-7 0 -12 -5t-5 -12t5 -12t12 -5h102q7 0 12 5t5 12t-5 12t-12 5zM785 363q0 7 -5 12t-12 5h-273q-7 0 -12 -5t-5 -12t5 -12t12 -5h273q7 0 12 5t5 12zM256 277h205q7 0 12 5t5 12t-5 12t-12 5h-205q-7 0 -12 -5t-5 -12
t5 -12t12 -5zM393 516q-8 0 -13 -5t-5 -12t5 -12t13 -5h102q7 0 12 5t5 12t-5 12t-12 5h-102zM256 346h171q7 0 12 5t5 12t-5 12t-12 5h-171q-7 0 -12 -5t-5 -12t5 -12t12 -5zM256 414h273q7 0 12 5t5 12t-5 12t-12 5h-273q-7 0 -12 -5t-5 -12t5 -12t12 -5v0z" />
    <glyph glyph-name="uniE91D" unicode="&#xe91d;" 
d="M546 960q-74 0 -147 -9q-72 -8 -130 -25t-95 -42q-36 -25 -38 -58q-9 -49 -24 -143q-16 -94 -28 -190.5t-15 -175.5t13 -98q4 -5 9 -7.5t10 -2.5q19 0 41 37.5t49 207.5q14 86 22 158t8 73q1 7 -3.5 12.5t-11.5 6.5t-12.5 -3.5t-6.5 -11.5q-7 -71 -17 -143
q-9 -72 -20.5 -133t-22.5 -105q-12 -44 -22 -60q-5 20 -3 72q3 52 11 123.5t21 157.5q12 85 28 172q31 -29 85.5 -45.5t93.5 -23.5v-102q0 -22 15 -37t36 -15q5 0 9 1l8 2v-3q0 -28 20 -48t48 -20q29 0 49 20t20 48v37q4 -1 8 -1.5t9 -0.5q21 0 36 15t15 36v53
q36 2 70.5 5.5t66.5 9.5v-34q0 -21 15 -36t36 -15t36 15t15 36v61q22 8 39 17t29 18v-164q0 -21 -46 -45.5t-144 -40.5q-7 -1 -11 -6t-4 -11v-341q0 -4 2 -7.5t4 -5.5q3 -2 5.5 -3t5.5 -1h2h1q42 7 96.5 22t88.5 41v-131q0 -16 -26 -35q-26 -18 -74.5 -33t-117.5 -25
q-70 -10 -157 -10q-88 0 -157 10q-70 10 -118.5 25t-74.5 33q-26 19 -26 35v119q0 7 -5 12t-12 5t-12 -5t-5 -12v-119q0 -34 36 -59q36 -26 94.5 -43t131.5 -26t148 -9q74 0 147 9q74 9 132 26t94 43q36 25 36 59v750q0 34 -36 59q-36 26 -94 43t-132 26q-73 9 -147 9z
M921 260q0 -19 -41 -42t-129 -40v307q41 7 89.5 21.5t80.5 38.5v-285v0zM830 759q-5 -2 -8 -6t-3 -10v-73q0 -7 -5 -12t-12 -5t-12 5t-5 12v55q0 4 -2 7.5t-5 5.5q-3 3 -6.5 3.5t-7.5 0.5q-37 -8 -80 -13t-88 -7q-7 0 -11.5 -5t-4.5 -12v-69q0 -7 -5 -12t-12 -5t-12 5t-5 12
t-5 12t-12 5t-12 -5t-5 -12v-86q0 -14 -10 -24t-25 -10q-14 0 -24 10t-10 24v52q0 7 -5 12t-12 5t-12 -5t-5 -12t-5 -12t-12 -5t-12 5t-5 12v97q36 -5 74.5 -8t78.5 -4h1q7 0 12 5t5 12t-5 12t-12 5q-45 1 -87 4.5t-81 9.5v0v0q-98 17 -144.5 42.5t-46.5 45.5q0 16 26 35
q26 18 74.5 33t118.5 25q69 10 157 10q87 0 157 -10q69 -10 117.5 -25t74.5 -33q26 -19 26 -35q0 -15 -24.5 -32.5t-66.5 -31.5v0zM546 346q0 24 -24.5 56.5t-31.5 39.5q-5 6 -12.5 6t-12.5 -6q-7 -7 -31.5 -39.5t-24.5 -56.5q0 -29 20 -49t48 -20q29 0 49 20t20 49z
M443 346q0 8 10.5 25t23.5 34q14 -17 24.5 -34t10.5 -25q0 -15 -10 -25t-25 -10q-14 0 -24 10t-10 25z" />
    <glyph glyph-name="uniE91E" unicode="&#xe91e;" 
d="M256 414h102q7 0 12 5t5 12t-5 12t-12 5h-85v34h17q7 0 12 5t5 12t-5 12t-12 5h-17v34h17q7 0 12 5t5 12q0 8 -5 13t-12 5h-17v34h85q7 0 12 5t5 12t-5 12t-12 5h-85v34h17q7 0 12 5t5 12t-5 12t-12 5h-17v34h17q7 0 12 5t5 12t-5 12t-12 5h-17v34h85q7 0 12 5t5 13
q0 7 -5 12t-12 5h-85v68h239v-495q0 -7 5 -12t12 -5t12 5t5 12v512q0 7 -5 12t-12 5h-273q-7 0 -12 -5t-5 -12v-512q0 -7 5 -12t12 -5v0zM17 414q7 0 12 5t5 12v444q0 18 16.5 34.5t34.5 16.5h103q7 0 12 5t5 12t-5 12t-12 5h-103q-33 0 -59 -26t-26 -59v-444q0 -7 5 -12
t12 -5zM768 755q-7 0 -12 -5t-5 -12v-307q0 -7 5 -12t12 -5t12 5t5 12v307q0 7 -5 12t-12 5v0zM666 738v-307q0 -7 5 -12t12 -5t12 5t5 12v307q0 7 -5 12t-12 5t-12 -5t-5 -12zM700 -30h-17v17q0 7 -5 12t-12 5t-12 -5t-5 -12v-17h-35v17q0 7 -5 12t-12 5t-12 -5t-5 -12v-17
h-34v17q0 7 -5 12t-12 5t-12 -5t-5 -12v-17h-34v17q0 7 -5 12t-12 5t-12 -5t-5 -12v-17h-34v17q0 7 -5 12t-12 5q-8 0 -13 -5t-5 -12v-17h-34v17q0 7 -5 12t-12 5t-12 -5t-5 -12v-17h-34v17q0 7 -5 12t-12 5t-12 -5t-5 -12v-17h-34v17q0 7 -5 12t-12 5t-12 -5t-5 -12v-17
h-34v17q0 7 -5 12t-13 5q-7 0 -12 -5t-5 -12v-17h-17q-7 0 -12 -5t-5 -12t5 -12t12 -5h615q7 0 12 5t5 12t-5 12t-12 5v0zM597 414q7 0 12 5t5 12v371l69 109l54 -88h-71q-7 0 -12 -5t-5 -12t5 -12t12 -5h102q5 0 9 2.5t6 6.5t2 9t-3 8l-85 137q-5 7 -14.5 7t-14.5 -7
l-85 -137l-2 -4t-1 -5v-375q0 -7 5 -12t12 -5v0zM939 960h-171q-7 0 -12 -5t-5 -12t5 -12t12 -5h171q18 0 34.5 -16.5t16.5 -34.5v-615q0 -18 -16.5 -34.5t-34.5 -16.5h-854q-18 0 -34.5 16.5t-16.5 34.5v86h905q7 0 12 5t5 12t-5 12t-12 5h-922q-7 0 -12 -5t-5 -12v-103
q0 -33 26 -59t59 -26h854q33 0 59 26t26 59v615q0 33 -26 59t-59 26v0zM478 277q0 -14 10 -24t24 -10t24 10t10 24t-10 24t-24 10t-24 -10t-10 -24zM597 38q7 0 12 5t5 12v69q0 7 -5 12t-12 5t-12 -5t-5 -12v-69q0 -7 5 -12t12 -5zM444 55v69q0 7 -5 12t-12 5t-12 -5t-5 -12
v-69q0 -7 5 -12t12 -5t12 5t5 12zM887 38h-34q-28 0 -48 -20t-20 -48v-17q0 -7 5 -12t12 -5h137q7 0 12 5t5 12v17q0 28 -20 48t-49 20v0zM819 -30q0 14 10 24t24 10h34q15 0 25 -10t10 -24h-103z" />
    <glyph glyph-name="uniE91F" unicode="&#xe91f;" 
d="M896 675q-1 12 -10.5 20.5t-21.5 8.5h-160v64q0 79 -56.5 135.5t-135.5 56.5t-135.5 -56.5t-56.5 -135.5v-64h-160q-12 0 -21.5 -8.5t-10.5 -20.5l-64 -704q0 -7 2 -13.5t6 -11.5q5 -5 11 -7.5t13 -2.5h832q7 0 13 2.5t11 7.5q4 5 6 11.5t2 13.5zM384 768q0 53 37.5 90.5
t90.5 37.5t90.5 -37.5t37.5 -90.5v-64h-256v64zM131 0l58 640h131v-73q-14 -8 -23 -22.5t-9 -32.5q0 -26 19 -45t45 -19t45 19t19 45q0 18 -9 32.5t-23 22.5v73h256v-73q-14 -8 -23 -22.5t-9 -32.5q0 -26 19 -45t45 -19t45 19t19 45q0 18 -9 32.5t-23 22.5v73h131l58 -640
h-762z" />
    <glyph glyph-name="uniE920" unicode="&#xe920;" 
d="M15 875q-15 14 -15 35t15 36q14 14 35 14t36 -14l426 -427l427 427q14 14 35 14t35 -14q15 -15 15 -36t-15 -35l-426 -427l426 -427q15 -14 15 -35t-15 -36q-14 -14 -35 -14t-35 14l-427 427l-426 -427q-15 -14 -36 -14t-35 14q-15 15 -15 36t15 35l426 427l-426 427v0z
" />
    <glyph glyph-name="uniE921" unicode="&#xe921;" 
d="M660 680v-63h301v-602h-898v602h301v63h-364v-728h1024v728h-364zM363 420l149 -149l149 149l-45 45l-72 -72v551h-64v-551l-72 72z" />
    <glyph glyph-name="uniE922" unicode="&#xe922;" 
d="M789 555h-597q-26 0 -45 -19t-19 -45v-43q0 -57 15 -111q15 -53 43.5 -100t69.5 -85t91 -64q8 -4 16.5 -1.5t12.5 10.5t1.5 16.5t-10.5 12.5q-45 23 -82 57q-36 34 -61.5 76t-39.5 90q-13 48 -13 99v43q0 9 6 15t15 6h597q9 0 15.5 -6t6.5 -15v-43q0 -51 -14 -99
t-39.5 -90t-61.5 -76t-82 -57q-8 -4 -10.5 -12.5t1.5 -16.5q3 -6 8 -9t11 -3q3 0 5.5 1t4.5 2q51 26 91 64q41 38 69.5 85t43.5 100q15 54 15 111v43q0 26 -18.5 45t-45.5 19v0zM980 115q-3 6 -8 9.5t-12 3.5h-939q-6 0 -11.5 -3.5t-7.5 -9.5q-3 -6 -1.5 -12.5t5.5 -10.5
l48 -48q21 -21 48.5 -32.5t57.5 -11.5h662q30 0 57 11.5t48 32.5l48 48q5 4 6 10.5t-1 12.5v0zM897 74q-15 -15 -34.5 -23t-40.5 -8h-662q-22 0 -41.5 8t-34.5 23l-11 11h836zM983 454q-43 28 -97.5 12t-62.5 -20t-11 -12t1 -16q3 -8 11.5 -11t16.5 0q15 7 54.5 17t64.5 -6
q11 -7 16 -20.5t5 -34.5q0 -32 -28 -58t-66.5 -44.5t-78.5 -30.5q-41 -12 -65 -17l-16 -3q-8 -2 -13 -9t-3 -16q1 -8 7 -12.5t14 -4.5h2h2l15 3q4 1 47 11q43 11 93.5 34t91.5 59t41 88q0 32 -10.5 55t-30.5 36v0zM657 733q26 33 26 77.5t-26 77.5q-6 7 -14.5 8t-15.5 -5
q-7 -5 -8 -14t4 -16q17 -20 17 -50t-17 -51q-26 -33 -26 -77.5t26 -77.5q4 -4 8 -6t9 -2q4 0 7 1.5t6 3.5q7 6 8 14.5t-4 15.5q-17 21 -17 51t17 50v0zM529 733q26 33 26 77.5t-26 77.5q-6 7 -14.5 8t-15.5 -5q-7 -5 -8 -14t4 -16q17 -20 17 -50t-17 -51q-26 -33 -26 -77.5
t26 -77.5q3 -4 7.5 -6t9.5 -2q3 0 6.5 1.5t6.5 3.5q7 6 8 14.5t-4 15.5q-17 21 -17 51t17 50v0zM401 733q26 33 26 77.5t-26 77.5q-6 7 -14.5 8t-15.5 -5q-7 -5 -8 -14t4 -16q17 -20 17 -50t-17 -51q-26 -33 -26 -77.5t26 -77.5q4 -4 8 -6t9 -2q4 0 7 1.5t6 3.5q7 6 8 14.5
t-4 15.5q-17 21 -17 51t17 50v0z" />
    <glyph glyph-name="uniE923" unicode="&#xe923;" 
d="M73 -64h293v1024h-293v-1024v0zM658 960v-1024h293v1024h-293z" />
    <glyph glyph-name="uniE924" unicode="&#xe924;" 
d="M879 468l-707 488q-5 4 -12 4t-13 -3t-9.5 -9t-3.5 -12v-976q0 -6 3.5 -12t9.5 -9q3 -2 6 -2.5t5 -0.5q4 0 7.5 1t6.5 3l707 488q5 3 8 8.5t3 11.5t-3 11.5t-8 8.5v0z" />
    <glyph glyph-name="uniE925" unicode="&#xe925;" 
d="M931 727h-351l249 191q7 6 8.5 15.5t-4.5 17.5t-15.5 9t-17.5 -5l-288 -222l-288 222q-8 6 -17.5 5t-15.5 -9t-4.5 -17.5t8.5 -15.5l249 -191h-351q-38 0 -65.5 -27t-27.5 -66v-558q0 -33 20 -58t50 -33v-26q0 -9 6.5 -16t16.5 -7h838q10 0 16.5 7t6.5 16v26q30 8 50 33
t20 58v558q0 39 -27.5 66t-65.5 27v0zM977 76q0 -20 -13.5 -33.5t-32.5 -13.5q-10 0 -16.5 -7t-6.5 -16v-23h-792v23q0 9 -6.5 16t-16.5 7q-19 0 -32.5 13.5t-13.5 33.5v558q0 19 13.5 33t32.5 14h838q19 0 32.5 -14t13.5 -33v-558v0zM852 616q-20 3 -52 6t-74 5.5t-95 4.5
t-115 2t-115 -2t-95 -4.5t-74 -5.5t-52 -6q-25 -3 -43.5 -18t-23.5 -37q-7 -31 -13.5 -86.5t-6.5 -142.5t6.5 -143t13.5 -86q5 -23 23.5 -38t43.5 -18q20 -2 52 -6q32 -3 74 -5.5t95 -4.5t115 -2t115 2t95 4.5t74 5.5q32 4 52 6q25 3 43.5 18.5t23.5 37.5q7 30 13.5 85.5
t6.5 143.5q0 87 -6.5 142.5t-13.5 86.5q-5 22 -23.5 37t-43.5 18v0zM873 113q-1 -8 -8.5 -13t-18.5 -7q-20 -2 -51 -5t-72.5 -6t-93.5 -5q-52 -1 -113 -1t-113 1q-52 2 -93.5 5t-72.5 6t-51 5q-11 2 -18.5 7t-8.5 13q-7 28 -13 81.5t-6 137.5q0 83 6 136.5t13 81.5
q1 8 8.5 13.5t18.5 6.5q20 2 51 6q31 3 72.5 5.5t93.5 4.5t113 2t113 -2t93.5 -4.5t72.5 -5.5q31 -4 51 -6q11 -1 18.5 -6.5t8.5 -13.5q7 -28 13 -81t6 -137t-6 -137.5t-13 -81.5zM768 355h-47q-9 0 -16 -7t-7 -16q0 -10 7 -17t16 -7h47q10 0 16.5 7t6.5 17q0 9 -6.5 16
t-16.5 7zM752 534l-47 -46q-7 -7 -7 -16.5t7 -16.5q3 -4 7.5 -5.5t8.5 -1.5q5 0 9 1.5t8 5.5l46 46q7 7 7 16.5t-7 16.5q-6 7 -16 7t-16 -7v0zM738 208q-7 7 -16.5 7t-16.5 -7q-7 -6 -7 -16t7 -16l47 -47q3 -3 7.5 -5t8.5 -2t8.5 2t7.5 5q7 7 7 16.5t-7 16.5zM628 541
q-9 0 -16 -7t-7 -16v-30l-327 -102q-3 7 -8.5 11t-13.5 4q-10 0 -16.5 -6.5t-6.5 -16.5v-93q0 -10 6.5 -16.5t16.5 -6.5q8 0 13.5 4.5t8.5 10.5l48 -15v0v0q0 -39 27 -66t66 -27q23 0 43 11t33 29l110 -34v-30q0 -9 7 -16t16 -7q10 0 17 7t7 16v373q0 9 -7 16t-17 7v0z
M419 215q-15 0 -27 9t-17 23l71 -22q-5 -5 -12 -7.5t-15 -2.5zM605 224l-326 101v13l326 102v-216z" />
    <glyph glyph-name="uniE926" unicode="&#xe926;" 
d="M632 268q-8 0 -14 -6t-6 -14t6 -14t14 -6t14 6t6 14t-6 14t-14 6zM924 960h-824q-41 0 -70.5 -29.5t-29.5 -70.5v-612q0 -41 29.5 -70.5t70.5 -29.5h312v-92h-20q-20 0 -38.5 -7.5t-32.5 -21.5t-21.5 -32.5t-7.5 -38.5q0 -8 6 -14t14 -6h400q8 0 14 6t6 14
q0 41 -29.5 70.5t-70.5 29.5h-20v92h312q41 0 70.5 29.5t29.5 70.5v612q0 41 -29.5 70.5t-70.5 29.5zM100 920h824q25 0 42.5 -17.5t17.5 -42.5v-512h-92v460q0 8 -6 14t-14 6h-160q-8 0 -14 -6t-6 -14v-460h-100q0 16 -0.5 31t-1.5 30q-2 61 -7 101.5t-8 58.5
q31 23 38.5 60.5t-11.5 69.5l-69 120q-3 5 -7.5 7.5t-10.5 2.5q-5 0 -9.5 -2.5t-7.5 -7.5l-69 -120q-18 -31 -12 -66.5t34 -59.5q-4 -18 -9 -59.5t-8 -104.5q-1 -15 -1.5 -30.5t-0.5 -30.5h-100v300q0 2 -0.5 4.5t-1.5 4.5v0v0l-80 160q-3 5 -7.5 8t-10.5 3t-10.5 -3
t-7.5 -8l-80 -160v0v0q-1 -2 -1.5 -4.5t-0.5 -4.5v-300h-92v512q0 25 17.5 42.5t42.5 17.5v0zM732 348v440h120v-40h-20q-8 0 -14 -6t-6 -14t6 -14t14 -6h20v-60h-20q-8 0 -14 -6t-6 -14t6 -14t14 -6h20v-60h-20q-8 0 -14 -6t-6 -14t6 -14t14 -6h20v-80h-20q-8 0 -14 -6
t-6 -14t6 -14t14 -6h20v-40h-120zM515 549q6 0 11.5 1t10.5 2q3 -18 6.5 -49.5t5.5 -74.5h-74q2 43 6 75t7 50q7 -2 13.5 -3t13.5 -1v0zM515 589q-34 0 -51.5 30t-0.5 60l52 90l52 -90q18 -30 0.5 -60t-52.5 -30v0zM473 388h78q0 -10 0.5 -20t0.5 -20h-80q0 10 0.5 20
t0.5 20v0zM252 348v280h40v-280h-40zM172 348v280h40v-280h-40zM184 668l48 95l48 -95h-96zM689 -24h-354q3 6 6.5 12t8.5 10q8 9 19 13.5t23 4.5h240q20 0 35 -11.5t22 -28.5v0zM572 56h-120v92h120v-92zM924 188h-824q-25 0 -42.5 17.5t-17.5 42.5v60h944v-60
q0 -25 -17.5 -42.5t-42.5 -17.5zM552 268h-120q-8 0 -14 -6t-6 -14t6 -14t14 -6h120q8 0 14 6t6 14t-6 14t-14 6z" />
    <glyph glyph-name="uniE927" unicode="&#xe927;" 
d="M632 528q-8 0 -14 -6t-6 -14t6 -14t14 -6t14 6t6 14t-6 14t-14 6zM632 408q-8 0 -14 -6t-6 -14t6 -14t14 -6t14 6t6 14t-6 14t-14 6zM152 328q-8 0 -14 -6t-6 -14t6 -14t14 -6t14 6t6 14t-6 14t-14 6zM1013 686q-5 2 -10.5 2t-9.5 -4l-167 -116h-54v20q0 25 -17.5 42.5
t-42.5 17.5h-74q25 22 39.5 53t14.5 67q0 66 -47 113t-113 47q-45 0 -82.5 -23t-57.5 -60q-20 37 -57.5 60t-82.5 23q-66 0 -113 -47t-47 -113q0 -36 14.5 -67t39.5 -53h-86q-25 0 -42.5 -17.5t-17.5 -42.5v-360q0 -25 17.5 -42.5t42.5 -17.5h112v-60q0 -8 6 -14t14 -6h60
v-100q0 -8 6 -14t14 -6h240q8 0 14 6t6 14v100h60q8 0 14 6t6 14v60h100q25 0 42.5 17.5t17.5 42.5v60h54l167 -116q4 -4 9.5 -4t10.5 2q5 3 8 7.5t3 10.5v480q0 6 -3 10.5t-8 7.5v0zM532 888q50 0 85 -35t35 -85t-35 -85t-85 -35t-85 35t-35 85t35 85t85 35zM426 648h-68
q10 9 18.5 20t15.5 23q7 -12 15.5 -23t18.5 -20zM132 768q0 50 35 85t85 35t85 -35t35 -85t-35 -85t-85 -35t-85 35t-35 85zM492 8h-200v80h200v-80zM572 128h-360v40h360v-40zM732 228q0 -8 -6 -14t-14 -6h-652q-8 0 -14 6t-6 14v360q0 8 6 14t14 6h652q8 0 14 -6t6 -14
v-360zM772 528h40v-200h-40v200zM984 226l-132 92v220l132 92v-404zM252 828q-25 0 -42.5 -17.5t-17.5 -42.5t17.5 -42.5t42.5 -17.5t42.5 17.5t17.5 42.5t-17.5 42.5t-42.5 17.5zM252 748q-8 0 -14 6t-6 14t6 14t14 6t14 -6t6 -14t-6 -14t-14 -6zM532 708q25 0 42.5 17.5
t17.5 42.5t-17.5 42.5t-42.5 17.5t-42.5 -17.5t-17.5 -42.5t17.5 -42.5t42.5 -17.5zM532 788q8 0 14 -6t6 -14t-6 -14t-14 -6t-14 6t-6 14t6 14t14 6zM452 388v120q0 8 -6 14t-14 6h-280q-8 0 -14 -6t-6 -14v-120q0 -8 6 -14t14 -6h280q8 0 14 6t6 14zM412 408h-240v80h240
v-80zM632 328h-400q-8 0 -14 -6t-6 -14t6 -14t14 -6h400q8 0 14 6t6 14t-6 14t-14 6z" />
    <glyph glyph-name="uniE928" unicode="&#xe928;" 
d="M794 -13q-4 0 -7 1l-6 2l-269 147l-269 -147q-7 -3 -14 -2.5t-13 4.5t-9 11t-2 14l49 294l-195 196q-5 5 -7 12t0 14q3 6 8 11t13 6l294 49l122 244q3 7 9.5 11t13.5 4t13.5 -4t9.5 -11l122 -244l294 -49q8 -1 13 -5.5t8 -11.5q2 -7 0 -14t-7 -12l-195 -196l49 -294
q1 -7 -2 -14t-9 -11q-3 -2 -6.5 -3.5t-7.5 -1.5v0zM512 192q3 0 6 -1l6 -2l236 -129l-43 256q-1 6 1 12t6 10l170 170l-258 43q-6 1 -11 4.5t-8 9.5l-105 210l-105 -210q-3 -6 -8 -9.5t-11 -4.5l-258 -43l170 -170q4 -4 6 -10t1 -12l-43 -256l236 129l6 2t6 1v0z" />
    <glyph glyph-name="uniE929" unicode="&#xe929;" 
d="M947 704h-230v77q0 32 -22.5 54.5t-54.5 22.5h-256q-32 0 -54.5 -22.5t-22.5 -54.5v-77h-230q-32 0 -54.5 -22.5t-22.5 -54.5v-563q0 -32 22.5 -54.5t54.5 -22.5h870q32 0 54.5 22.5t22.5 54.5v563q0 32 -22.5 54.5t-54.5 22.5zM358 781q0 10 7.5 17.5t18.5 7.5h256
q11 0 18.5 -7.5t7.5 -17.5v-77h-308v77v0zM77 653h870q11 0 18.5 -7.5t7.5 -18.5v-384h-103v26q0 10 -7.5 17.5t-17.5 7.5h-103q-10 0 -17.5 -7.5t-7.5 -17.5v-26h-410v26q0 10 -7.5 17.5t-17.5 7.5h-103q-10 0 -17.5 -7.5t-7.5 -17.5v-26h-103v384q0 11 7.5 18.5t18.5 7.5
v0zM819 243v-51h-51v51h51zM256 243v-51h-51v51h51zM947 38h-870q-11 0 -18.5 7.5t-7.5 18.5v128h103v-26q0 -10 7.5 -17.5t17.5 -7.5h103q10 0 17.5 7.5t7.5 17.5v26h410v-26q0 -10 7.5 -17.5t17.5 -7.5h103q10 0 17.5 7.5t7.5 17.5v26h103v-128q0 -11 -7.5 -18.5
t-18.5 -7.5v0z" />
    <glyph glyph-name="uniE92A" unicode="&#xe92a;" 
d="M486 -13q-3 0 -6 1l-6 2q-2 1 -22 14q-21 12 -54 34t-74 53q-42 32 -85 71q-52 46 -92.5 93.5t-70.5 94.5q-38 61 -57 120.5t-19 118.5q0 55 21 104t57.5 85.5t85.5 57.5q49 22 105 22q37 0 76 -14t74 -39q20 -15 37.5 -33t29.5 -37q13 19 30.5 37t37.5 33q35 25 73.5 39
t76.5 14q56 0 105 -22q48 -21 84.5 -57.5t58.5 -85.5q21 -49 21 -104q0 -59 -19 -118.5t-57 -120.5q-30 -47 -71 -94.5t-92 -93.5q-44 -39 -85 -71q-41 -31 -74 -53t-54 -34q-20 -13 -22 -14l-6 -2t-7 -1v0zM269 806q-45 0 -85 -17q-39 -17 -69 -46.5t-47 -69.5
q-17 -39 -17 -84q0 -59 21 -114q20 -55 52 -104.5t71 -92.5q40 -43 77 -78q68 -61 129 -102t85 -56q25 15 86 56t128 102q38 35 78 78q39 43 71 92.5t52 104.5q21 55 21 114q0 45 -18 84q-17 40 -46.5 69.5t-68.5 46.5q-40 17 -85 17q-65 0 -121 -43.5t-72 -92.5
q-3 -8 -9.5 -12.5t-15.5 -4.5q-8 0 -14.5 4.5t-9.5 12.5q-16 49 -72 92.5t-121 43.5v0z" />
  </font>
</defs>
</svg>
